<svg id="Layer_1" data-name="Layer 1" xmlns="http://www.w3.org/2000/svg" viewBox="0 0 3601 1080"><defs><style>.cls-1{fill:#8dab7f;}.cls-2{fill:#fff;}</style></defs><title>PORTFOLIO_header</title><path class="cls-1" d="M92.15,47.83l3.23-32.08,90.54,9.13L181.5,68.73a37.09,37.09,0,0,1-3,11,33.48,33.48,0,0,1-6.91,10.21,31.39,31.39,0,0,1-11,7.12,32.71,32.71,0,0,1-15.39,1.71,30.46,30.46,0,0,1-11-3.4,31.66,31.66,0,0,1-9.55-7.63,35.09,35.09,0,0,1-6.37-11.29,32.7,32.7,0,0,1-1.5-14.26l1.19-11.77Zm64.93,6.54L143.24,53,143,55.7a11.4,11.4,0,0,0,1,6.11,5.58,5.58,0,0,0,4.91,3.11,6,6,0,0,0,5.69-2A11,11,0,0,0,156.82,57Z"/><path class="cls-1" d="M131.95,102.82a48.45,48.45,0,0,1,18,5.84,46.22,46.22,0,0,1,13.8,11.74,48,48,0,0,1-75.39,59.54,46.5,46.5,0,0,1-8.19-16.28,50.8,50.8,0,0,1,4.7-37.8,45.76,45.76,0,0,1,28.19-21.78A48.45,48.45,0,0,1,131.95,102.82Zm-4.17,33.54a23.26,23.26,0,0,0-6.43.05,15.27,15.27,0,0,0-5.47,1.87,12,12,0,0,0-4,3.89,15.31,15.31,0,0,0-1.52,12.26,12.6,12.6,0,0,0,2.94,4.82,14.68,14.68,0,0,0,4.84,3.22A24.43,24.43,0,0,0,130.76,164a15.39,15.39,0,0,0,5.55-1.93,12.34,12.34,0,0,0,4.09-3.95,15.31,15.31,0,0,0,1.52-12.26,11.74,11.74,0,0,0-3-4.76A16,16,0,0,0,134,138,23.29,23.29,0,0,0,127.78,136.36Z"/><path class="cls-1" d="M71,229.95l3-31.71,90.59,8.63-4.13,43.35a38.51,38.51,0,0,1-2.8,10.83,32.9,32.9,0,0,1-6.59,10.21,29.29,29.29,0,0,1-25.21,9,28.46,28.46,0,0,1-12.57-4.46,30.58,30.58,0,0,1-10-10.49L66.35,278.86l3.16-33.13,30.18-11.1.19-1.94Zm66,8.9.25-2.59L124.07,235l-.26,2.72a11.52,11.52,0,0,0,.93,6,5.19,5.19,0,0,0,4.61,3.05,5.74,5.74,0,0,0,5.49-2.09A11.06,11.06,0,0,0,137,238.85Z"/><path class="cls-1" d="M130.61,287.43l26.38.82-1.83,59.25-26.38-.82.4-13-64.58-2,1-33.26,64.58,2Z"/><path class="cls-1" d="M154.95,349.89,159.07,409l-26.33,1.84-1.81-25.94-10.5.73,1.67,23.86-22.18,1.55L98.26,387.2l-31.77,2.22-2.32-33.2Z"/><path class="cls-1" d="M112.13,420.51a48.45,48.45,0,0,1,18.81-2.11,46.21,46.21,0,0,1,17.42,5,48,48,0,0,1-44.11,85.34,46.5,46.5,0,0,1-14.18-11.45,50.8,50.8,0,0,1-11.31-36.37,45.76,45.76,0,0,1,16.69-31.47A48.45,48.45,0,0,1,112.13,420.51Zm10,32.27a23.27,23.27,0,0,0-5.83,2.7,15.27,15.27,0,0,0-4.21,4,12,12,0,0,0-2.06,5.2,15.32,15.32,0,0,0,3.67,11.79,12.6,12.6,0,0,0,4.66,3.18,14.68,14.68,0,0,0,5.74.94,24.43,24.43,0,0,0,12.17-3.78,15.39,15.39,0,0,0,4.25-4,12.34,12.34,0,0,0,2.1-5.28A15.31,15.31,0,0,0,139,455.65a11.74,11.74,0,0,0-4.71-3.1,16,16,0,0,0-5.78-.86A23.27,23.27,0,0,0,122.17,452.78Z"/><path class="cls-1" d="M183.42,491.22l21.25,25.61-49.73,41.25,15.27,18.41-20.31,16.85-36.52-44Z"/><path class="cls-1" d="M217.9,531.44,245.54,550l-50.7,75.57L167.2,607Z"/><path class="cls-1" d="M232.21,603a48.46,48.46,0,0,1,2.52-18.76,46.23,46.23,0,0,1,9.07-15.68,48,48,0,0,1,72.09,63.5,46.49,46.49,0,0,1-14.55,11,50.8,50.8,0,0,1-38,2.15,45.76,45.76,0,0,1-26.48-23.83A48.44,48.44,0,0,1,232.21,603ZM266,601.1a23.28,23.28,0,0,0,1.2,6.31,15.27,15.27,0,0,0,2.83,5,12,12,0,0,0,4.55,3.26,15.32,15.32,0,0,0,12.33-.7,12.59,12.59,0,0,0,4.21-3.75,14.68,14.68,0,0,0,2.3-5.34,24.43,24.43,0,0,0-.72-12.72,15.4,15.4,0,0,0-2.89-5.11,12.35,12.35,0,0,0-4.61-3.32,15.32,15.32,0,0,0-12.33.7,11.75,11.75,0,0,0-4.15,3.82,16,16,0,0,0-2.23,5.4A23.27,23.27,0,0,0,266,601.1Z"/><path class="cls-1" d="M425.25,526.34l-6.68,31.54-89-18.87,9.14-43.11a37.1,37.1,0,0,1,4.18-10.61,33.48,33.48,0,0,1,8-9.41A31.39,31.39,0,0,1,362.57,470a32.72,32.72,0,0,1,15.49,0,30.46,30.46,0,0,1,10.59,4.57,31.67,31.67,0,0,1,8.67,8.62,35.09,35.09,0,0,1,5.12,11.91,32.68,32.68,0,0,1,0,14.34L399.94,521ZM361.4,512.81,375,515.7l.57-2.67a11.4,11.4,0,0,0-.29-6.17,5.58,5.58,0,0,0-4.55-3.62,6,6,0,0,0-5.88,1.41,11,11,0,0,0-2.92,5.63Z"/><path class="cls-1" d="M388.58,466.23a48.45,48.45,0,0,1-17.58-7,46.2,46.2,0,0,1-13-12.63,48,48,0,0,1,79.19-54.38A46.51,46.51,0,0,1,444.29,409a50.8,50.8,0,0,1-7.21,37.4,45.76,45.76,0,0,1-29.57,19.85A48.45,48.45,0,0,1,388.58,466.23ZM395,433a23.27,23.27,0,0,0,6.42.38,15.28,15.28,0,0,0,5.59-1.51,12,12,0,0,0,4.27-3.61,15.32,15.32,0,0,0,2.34-12.13,12.6,12.6,0,0,0-2.61-5,14.68,14.68,0,0,0-4.61-3.54,24.43,24.43,0,0,0-12.51-2.41,15.4,15.4,0,0,0-5.66,1.56,12.35,12.35,0,0,0-4.35,3.66,15.32,15.32,0,0,0-2.34,12.13,11.74,11.74,0,0,0,2.69,5,16.05,16.05,0,0,0,4.69,3.49A23.3,23.3,0,0,0,395,433Z"/><path class="cls-1" d="M464,350.73l-13.31,28.94-82.68-38,18.19-39.57a38.52,38.52,0,0,1,6.21-9.31,32.92,32.92,0,0,1,9.59-7.47,29.29,29.29,0,0,1,26.75-.15,28.47,28.47,0,0,1,10.39,8.36,30.58,30.58,0,0,1,6,13.21l39.36-.65-13.9,30.24-32.15.53-.81,1.77Zm-59.39-30.17-1.09,2.36,12,5.54,1.14-2.48a11.52,11.52,0,0,0,1.09-5.94,5.19,5.19,0,0,0-3.34-4.4,5.74,5.74,0,0,0-5.87.16A11.06,11.06,0,0,0,404.64,320.57Z"/><path class="cls-1" d="M438.09,263.75l-18.3-19,42.71-41.11,18.3,19-9.37,9,44.81,46.55-24,23.08-44.81-46.55Z"/><path class="cls-1" d="M489.05,187.23l54.49-23.35,10.39,24.26L530,198.38l4.15,9.68,22-9.42,8.76,20.43-22,9.42,12.55,29.28-30.59,13.11Z"/><path class="cls-1" d="M573.68,199.22a48.46,48.46,0,0,1,2.12-18.81,46.22,46.22,0,0,1,8.74-15.87,48,48,0,0,1,73.4,62,46.51,46.51,0,0,1-14.31,11.28,50.8,50.8,0,0,1-38,3,45.76,45.76,0,0,1-27-23.26A48.44,48.44,0,0,1,573.68,199.22Zm33.7-2.62a23.27,23.27,0,0,0,1.34,6.29,15.28,15.28,0,0,0,2.93,5,12,12,0,0,0,4.61,3.16,15.31,15.31,0,0,0,12.31-1,12.59,12.59,0,0,0,4.13-3.84,14.68,14.68,0,0,0,2.19-5.39,24.44,24.44,0,0,0-1-12.7,15.39,15.39,0,0,0-3-5,12.34,12.34,0,0,0-4.68-3.22,15.32,15.32,0,0,0-12.31,1,11.74,11.74,0,0,0-4.06,3.9,16,16,0,0,0-2.12,5.45A23.28,23.28,0,0,0,607.37,196.6Z"/><path class="cls-1" d="M698.58,153.85l31.64,10.31-20,61.43L732.95,233l-8.18,25.09-54.38-17.73Z"/><path class="cls-1" d="M774.07,183.61,801.8,202l-50.32,75.82-27.73-18.4Z"/><path class="cls-1" d="M791.57,246.62a48.46,48.46,0,0,1,17.25-7.79,46.21,46.21,0,0,1,18.11-.59A48,48,0,0,1,811.17,333a46.5,46.5,0,0,1-17-6.54,50.8,50.8,0,0,1-21.94-31.14,45.76,45.76,0,0,1,6.22-35.07A48.45,48.45,0,0,1,791.57,246.62ZM811,274.25a23.28,23.28,0,0,0-4.72,4.36,15.28,15.28,0,0,0-2.79,5.07,12,12,0,0,0-.36,5.58,15.31,15.31,0,0,0,7.11,10.1,12.6,12.6,0,0,0,5.42,1.59,14.68,14.68,0,0,0,5.75-.87,24.43,24.43,0,0,0,10.41-7.34,15.39,15.39,0,0,0,2.81-5.16,12.35,12.35,0,0,0,.38-5.67,15.32,15.32,0,0,0-7.11-10.1,11.75,11.75,0,0,0-5.43-1.5,16,16,0,0,0-5.76,1A23.29,23.29,0,0,0,811,274.25Z"/><path class="cls-1" d="M817.89,417.36,816,385.18l90.84-5.31,2.57,44a37.09,37.09,0,0,1-1.23,11.34A33.48,33.48,0,0,1,903,446.37a31.39,31.39,0,0,1-9.77,8.78,32.72,32.72,0,0,1-14.93,4.13,30.46,30.46,0,0,1-11.42-1.61,31.66,31.66,0,0,1-10.64-6,35.08,35.08,0,0,1-8.08-10.14,32.69,32.69,0,0,1-3.74-13.85l-.69-11.81ZM883,413.55l-13.89.81.16,2.73a11.4,11.4,0,0,0,1.91,5.88,5.58,5.58,0,0,0,5.34,2.29,6,6,0,0,0,5.3-2.91,11,11,0,0,0,1.33-6.2Z"/><path class="cls-1" d="M867,474.26a48.47,48.47,0,0,1,16.71,8.9,46.22,46.22,0,0,1,11.54,14,48,48,0,0,1-84.63,45.45,46.5,46.5,0,0,1-5.22-17.46,50.8,50.8,0,0,1,11.23-36.4,45.76,45.76,0,0,1,31.56-16.52A48.44,48.44,0,0,1,867,474.26Zm-10,32.3a23.27,23.27,0,0,0-6.34-1.07,15.27,15.27,0,0,0-5.72.89,12,12,0,0,0-4.64,3.13,15.32,15.32,0,0,0-3.64,11.8,12.6,12.6,0,0,0,2.05,5.26,14.68,14.68,0,0,0,4.2,4,24.43,24.43,0,0,0,12.17,3.76,15.39,15.39,0,0,0,5.8-.93,12.35,12.35,0,0,0,4.72-3.17,15.32,15.32,0,0,0,3.64-11.8,11.74,11.74,0,0,0-2.13-5.22,16,16,0,0,0-4.28-4A23.3,23.3,0,0,0,857,506.56Z"/><path class="cls-1" d="M773.45,573.7l20.69-24.21,69.19,59.11L835,641.71a38.51,38.51,0,0,1-8.51,7.26,32.91,32.91,0,0,1-11.26,4.57,29.29,29.29,0,0,1-25.78-7.15,28.46,28.46,0,0,1-7.72-10.87,30.58,30.58,0,0,1-2.19-14.35l-38-10.11,21.62-25.3L794.22,594l1.27-1.48Zm48.92,45.21,1.69-2L814,608.32l-1.77,2.08a11.53,11.53,0,0,0-2.66,5.42,5.19,5.19,0,0,0,2,5.14,5.74,5.74,0,0,0,5.69,1.44A11.05,11.05,0,0,0,822.37,618.91Z"/><path class="cls-1" d="M781.4,659.29,798,679.82l-46.12,37.25-16.58-20.53,10.11-8.17-40.6-50.26,25.89-20.91,40.6,50.26Z"/><path class="cls-1" d="M745.2,721.38,698,757.24l-16-21,20.71-15.73-6.37-8.39-19,14.47-13.45-17.7,19-14.47L663.66,669l26.5-20.13Z"/><path class="cls-1" d="M660.77,722.73a48.46,48.46,0,0,1,12.3,14.39,46.22,46.22,0,0,1,5.64,17.22,48,48,0,0,1-95.38,11.39,46.51,46.51,0,0,1,1.52-18.16,50.8,50.8,0,0,1,23.75-29.78A45.76,45.76,0,0,1,644,713.94,48.45,48.45,0,0,1,660.77,722.73Zm-21.08,26.42a23.28,23.28,0,0,0-5.51-3.31,15.26,15.26,0,0,0-5.65-1.26,12,12,0,0,0-5.46,1.22,15.31,15.31,0,0,0-7.7,9.66,12.59,12.59,0,0,0,0,5.64,14.68,14.68,0,0,0,2.44,5.28,24.43,24.43,0,0,0,10,7.94,15.4,15.4,0,0,0,5.74,1.25,12.35,12.35,0,0,0,5.55-1.23,15.32,15.32,0,0,0,7.7-9.66,11.75,11.75,0,0,0-.08-5.63,16,16,0,0,0-2.54-5.26A23.27,23.27,0,0,0,639.69,749.16Z"/><path class="cls-1" d="M648.57,813.11,651,846.3,586.58,851l1.76,23.86L562,876.83l-4.2-57Z"/><path class="cls-1" d="M653.81,866.9l10.73,31.5L578.4,927.74l-10.73-31.5Z"/><path class="cls-1" d="M621.28,927.54A48.44,48.44,0,0,1,637,917a46.21,46.21,0,0,1,17.76-3.58,48,48,0,0,1,.13,96.06,46.51,46.51,0,0,1-17.86-3.63,50.8,50.8,0,0,1-26.79-27.08,45.76,45.76,0,0,1,.33-35.62A48.44,48.44,0,0,1,621.28,927.54Zm23.77,24a23.27,23.27,0,0,0-3.93,5.08,15.28,15.28,0,0,0-1.91,5.46,12,12,0,0,0,.57,5.56,15.32,15.32,0,0,0,8.69,8.78,12.6,12.6,0,0,0,5.6.67,14.67,14.67,0,0,0,5.52-1.81,24.44,24.44,0,0,0,9.06-9,15.39,15.39,0,0,0,1.91-5.55,12.35,12.35,0,0,0-.57-5.66,15.32,15.32,0,0,0-8.69-8.78,11.74,11.74,0,0,0-5.6-.58,16,16,0,0,0-5.53,1.9A23.3,23.3,0,0,0,645.06,951.57Z"/><path class="cls-1" d="M782,1051.68l-32.12,2.73-7.7-90.67L786.06,960a37.1,37.1,0,0,1,11.36.93,33.47,33.47,0,0,1,11.31,4.91,31.39,31.39,0,0,1,9,9.54,32.72,32.72,0,0,1,4.52,14.82,30.46,30.46,0,0,1-1.31,11.46,31.67,31.67,0,0,1-5.74,10.79,35.09,35.09,0,0,1-9.92,8.34,32.69,32.69,0,0,1-13.74,4.1l-11.79,1Zm-5.52-65,1.18,13.86,2.72-.23a11.39,11.39,0,0,0,5.83-2.06,5.58,5.58,0,0,0,2.15-5.4,6,6,0,0,0-3.05-5.22,11,11,0,0,0-6.23-1.17Z"/><path class="cls-1" d="M833.7,1000a48.47,48.47,0,0,1-5.76-18,46.22,46.22,0,0,1,1.48-18.06,48,48,0,0,1,92.34,26.49,46.5,46.5,0,0,1-8.44,16.15,50.8,50.8,0,0,1-33.44,18.24,45.76,45.76,0,0,1-34.13-10.18A48.43,48.43,0,0,1,833.7,1000Zm29.67-16.18a23.25,23.25,0,0,0,3.79,5.19,15.28,15.28,0,0,0,4.72,3.35,12,12,0,0,0,5.5,1,15.32,15.32,0,0,0,10.84-5.91,12.61,12.61,0,0,0,2.2-5.2,14.68,14.68,0,0,0-.21-5.81,24.43,24.43,0,0,0-6.1-11.18,15.38,15.38,0,0,0-4.8-3.38,12.33,12.33,0,0,0-5.59-1,15.31,15.31,0,0,0-10.84,5.91,11.74,11.74,0,0,0-2.11,5.22,16,16,0,0,0,.3,5.84A23.29,23.29,0,0,0,863.38,983.84Z"/><path class="cls-1" d="M976.68,958.17l-23.59,21.4-61.16-67.39,32.25-29.27a38.55,38.55,0,0,1,9.36-6.13,32.89,32.89,0,0,1,11.75-3.11A29.29,29.29,0,0,1,970,884a28.47,28.47,0,0,1,6.29,11.76,30.59,30.59,0,0,1,.35,14.51l36.46,14.84-24.64,22.37-29.78-12.12-1.44,1.31Zm-42.81-51-1.93,1.75,8.91,9.82,2-1.83a11.53,11.53,0,0,0,3.33-5,5.19,5.19,0,0,0-1.35-5.36,5.74,5.74,0,0,0-5.46-2.15A11.06,11.06,0,0,0,933.87,907.13Z"/><path class="cls-1" d="M972.39,874.91,955,855.1l44.5-39.16,17.43,19.81-9.76,8.59,42.68,48.51-25,22-42.68-48.51Z"/><path class="cls-1" d="M1004.84,811.27l45.22-38.33,17.07,20.13-19.83,16.81,6.81,8,18.25-15.47,14.38,17-18.25,15.47,20.6,24.29-25.38,21.52Z"/><path class="cls-1" d="M1083.74,803.7a48.46,48.46,0,0,1-8.78-16.77,46.21,46.21,0,0,1-1.65-18,48,48,0,0,1,95.52,10.22,46.49,46.49,0,0,1-5.54,17.36,50.81,50.81,0,0,1-29.81,23.72,45.76,45.76,0,0,1-35.38-4.17A48.46,48.46,0,0,1,1083.74,803.7Zm26.45-21a23.3,23.3,0,0,0,4.63,4.46,15.29,15.29,0,0,0,5.22,2.49,12,12,0,0,0,5.59,0,15.32,15.32,0,0,0,9.66-7.69,12.6,12.6,0,0,0,1.27-5.5,14.69,14.69,0,0,0-1.2-5.69,24.43,24.43,0,0,0-7.93-10,15.39,15.39,0,0,0-5.31-2.5,12.35,12.35,0,0,0-5.68,0,15.31,15.31,0,0,0-9.66,7.69,11.74,11.74,0,0,0-1.18,5.51,16,16,0,0,0,1.29,5.7A23.27,23.27,0,0,0,1110.19,782.66Z"/><path class="cls-1" d="M1137.35,703.55l26.85-19.66L1202.37,736l19.3-14.13,15.59,21.29L1191.11,777Z"/><path class="cls-1" d="M1189.66,665.61l27.44-18.83,51.5,75-27.44,18.83Z"/><path class="cls-1" d="M1248.39,679.71a48.45,48.45,0,0,1-6.72-17.7,46.22,46.22,0,0,1,.51-18.11,48,48,0,0,1,93.62,21.52,46.5,46.5,0,0,1-7.57,16.58,50.8,50.8,0,0,1-32.42,20,45.76,45.76,0,0,1-34.63-8.35A48.44,48.44,0,0,1,1248.39,679.71ZM1277.16,662a23.27,23.27,0,0,0,4.06,5,15.27,15.27,0,0,0,4.89,3.09,12,12,0,0,0,5.55.7,15.32,15.32,0,0,0,10.51-6.48,12.6,12.6,0,0,0,1.92-5.31,14.68,14.68,0,0,0-.52-5.79,24.43,24.43,0,0,0-6.69-10.84,15.41,15.41,0,0,0-5-3.12,12.34,12.34,0,0,0-5.64-.72,15.32,15.32,0,0,0-10.51,6.48,11.73,11.73,0,0,0-1.83,5.33,16.06,16.06,0,0,0,.61,5.81A23.27,23.27,0,0,0,1277.16,662Z"/><path class="cls-1" d="M1420.32,634.48l-29.17,13.72-38.74-82.34,39.88-18.76a37.11,37.11,0,0,1,11-3.08,33.48,33.48,0,0,1,12.31.67,31.39,31.39,0,0,1,11.78,5.81,32.72,32.72,0,0,1,9.39,12.32,30.46,30.46,0,0,1,2.76,11.2,31.65,31.65,0,0,1-1.63,12.12,35.09,35.09,0,0,1-6.4,11.27A32.7,32.7,0,0,1,1420,606l-10.71,5Zm-27.78-59.05,5.92,12.59,2.47-1.16a11.4,11.4,0,0,0,4.75-4,5.58,5.58,0,0,0,.14-5.81,6,6,0,0,0-4.68-3.83,11,11,0,0,0-6.25,1.07Z"/><path class="cls-1" d="M1448.36,570.85a48.45,48.45,0,0,1-2.92-18.7,46.22,46.22,0,0,1,4.24-17.62,48,48,0,0,1,87.17,40.36A46.5,46.5,0,0,1,1526,589.55a50.8,50.8,0,0,1-35.84,12.89A45.75,45.75,0,0,1,1458,587.13,48.44,48.44,0,0,1,1448.36,570.85Zm31.81-11.43a23.28,23.28,0,0,0,3,5.71,15.29,15.29,0,0,0,4.14,4,12,12,0,0,0,5.29,1.83,15.31,15.31,0,0,0,11.62-4.18,12.59,12.59,0,0,0,3-4.8,14.68,14.68,0,0,0,.69-5.77,24.43,24.43,0,0,0-4.31-12,15.4,15.4,0,0,0-4.23-4.07,12.34,12.34,0,0,0-5.37-1.87,15.32,15.32,0,0,0-11.62,4.18,11.74,11.74,0,0,0-2.89,4.84,16,16,0,0,0-.6,5.81A23.3,23.3,0,0,0,1480.17,559.41Z"/><path class="cls-1" d="M1588.3,573l-30.94,7.57-21.61-88.4,42.3-10.34a38.51,38.51,0,0,1,11.15-.92A32.91,32.91,0,0,1,1601,483.8a29.29,29.29,0,0,1,16.75,20.86,28.46,28.46,0,0,1-.08,13.34,30.57,30.57,0,0,1-6.61,12.92l25,30.43-32.33,7.9-20.4-24.86-1.89.46ZM1575,507.76l-2.53.62,3.15,12.88,2.65-.65a11.52,11.52,0,0,0,5.33-2.84,5.19,5.19,0,0,0,1.37-5.35,5.74,5.74,0,0,0-3.78-4.5A11.06,11.06,0,0,0,1575,507.76Z"/><path class="cls-1" d="M1627.27,497.76l-4.09-26.07,58.56-9.18,4.09,26.07-12.84,2,10,63.83-32.88,5.15-10-63.83Z"/><path class="cls-1" d="M1692.59,461.24l59.08-4.88,2.17,26.3-25.91,2.14.87,10.49,23.84-2,1.83,22.15-23.84,2,2.62,31.74-33.17,2.74Z"/><path class="cls-1" d="M1762.6,500.69a48.45,48.45,0,0,1,3.7-18.57,46.22,46.22,0,0,1,10-15.08A48,48,0,0,1,1844.27,535a46.48,46.48,0,0,1-15.21,10,50.8,50.8,0,0,1-38.09-.26,45.76,45.76,0,0,1-24.92-25.45A48.43,48.43,0,0,1,1762.6,500.69Zm33.8.23a23.3,23.3,0,0,0,.8,6.38,15.29,15.29,0,0,0,2.5,5.22A12,12,0,0,0,1804,516a15.32,15.32,0,0,0,12.35.08,12.6,12.6,0,0,0,4.44-3.48,14.68,14.68,0,0,0,2.63-5.18,24.44,24.44,0,0,0,.09-12.74,15.37,15.37,0,0,0-2.56-5.28,12.34,12.34,0,0,0-4.4-3.6,15.31,15.31,0,0,0-12.35-.08,11.74,11.74,0,0,0-4.38,3.55,16,16,0,0,0-2.57,5.25A23.3,23.3,0,0,0,1796.4,500.92Z"/><path class="cls-1" d="M1870,457.23l33.15,2.9-5.62,64.36,23.83,2.08-2.3,26.29-57-5Z"/><path class="cls-1" d="M1935.38,463.44l33,4.42-12.08,90.2-33-4.42Z"/><path class="cls-1" d="M1969.72,513.29a48.45,48.45,0,0,1,7-17.58,46.21,46.21,0,0,1,12.63-13,48,48,0,0,1,54.36,79.21A46.5,46.5,0,0,1,2027,569a50.8,50.8,0,0,1-37.4-7.22,45.76,45.76,0,0,1-19.84-29.58A48.43,48.43,0,0,1,1969.72,513.29Zm33.19,6.4a23.25,23.25,0,0,0-.38,6.41,15.28,15.28,0,0,0,1.5,5.59,12,12,0,0,0,3.61,4.27,15.32,15.32,0,0,0,12.13,2.34,12.59,12.59,0,0,0,5-2.61,14.67,14.67,0,0,0,3.54-4.61,24.42,24.42,0,0,0,2.41-12.51,15.39,15.39,0,0,0-1.55-5.66,12.35,12.35,0,0,0-3.66-4.35,15.32,15.32,0,0,0-12.13-2.34,11.73,11.73,0,0,0-5,2.69,16.05,16.05,0,0,0-3.49,4.69A23.31,23.31,0,0,0,2002.91,519.7Z"/><path class="cls-1" d="M2125.36,596.78l-30.13-11.46,32.36-85.05,41.19,15.67a37.1,37.1,0,0,1,9.84,5.76,33.47,33.47,0,0,1,8.07,9.33,31.38,31.38,0,0,1,4,12.51,32.71,32.71,0,0,1-2.35,15.31,30.46,30.46,0,0,1-6.15,9.76,31.68,31.68,0,0,1-9.85,7.24,35.08,35.08,0,0,1-12.56,3.22,32.67,32.67,0,0,1-14.16-2.26l-11.06-4.21Zm23.21-61-4.95,13,2.55,1a11.39,11.39,0,0,0,6.14.67,5.58,5.58,0,0,0,4.28-3.94,6,6,0,0,0-.49-6,11,11,0,0,0-5.11-3.75Z"/><path class="cls-1" d="M2194.81,574.06a48.46,48.46,0,0,1,13.73-13,46.22,46.22,0,0,1,16.91-6.52,48,48,0,0,1,16.28,94.67,46.5,46.5,0,0,1-18.22-.58,50.8,50.8,0,0,1-31-22.19,45.76,45.76,0,0,1-5.67-35.17A48.44,48.44,0,0,1,2194.81,574.06Zm27.47,19.69a23.25,23.25,0,0,0-3,5.67,15.26,15.26,0,0,0-1,5.7,12,12,0,0,0,1.5,5.39,15.32,15.32,0,0,0,10,7.19,12.6,12.6,0,0,0,5.64-.28,14.67,14.67,0,0,0,5.14-2.71,24.43,24.43,0,0,0,7.42-10.36,15.38,15.38,0,0,0,1-5.79,12.35,12.35,0,0,0-1.51-5.48,15.31,15.31,0,0,0-10-7.19,11.73,11.73,0,0,0-5.62.37,16,16,0,0,0-5.13,2.8A23.28,23.28,0,0,0,2222.28,593.75Z"/><path class="cls-1" d="M2260.75,692.78l-16.12-27.47,78.48-46.06,22,37.56a38.52,38.52,0,0,1,4.08,10.42,32.92,32.92,0,0,1,.64,12.14,29.29,29.29,0,0,1-15.19,22,28.46,28.46,0,0,1-12.8,3.74,30.58,30.58,0,0,1-14.28-2.62l-22,32.65-16.84-28.7,18-26.67-1-1.68Zm58.72-31.45-1.32-2.24-11.44,6.71,1.38,2.35a11.52,11.52,0,0,0,4.25,4.29,5.19,5.19,0,0,0,5.52-.23,5.74,5.74,0,0,0,3.22-4.91A11.06,11.06,0,0,0,2319.48,661.34Z"/><path class="cls-1" d="M2346.15,723.82l26.23-2.91,6.54,58.92-26.23,2.91-1.43-12.92L2287,776.95l-3.67-33.08,64.22-7.13Z"/><path class="cls-1" d="M2376.85,810.24l-14.08,57.58-25.63-6.27,6.18-25.26-10.23-2.5L2327.39,857l-21.59-5.28,5.68-23.23-30.94-7.57,7.91-32.33Z"/><path class="cls-1" d="M2314.27,875a48.46,48.46,0,0,1,11.5,15,46.24,46.24,0,0,1,4.69,17.5,48,48,0,0,1-95.87,6.16,46.51,46.51,0,0,1,2.51-18.05,50.8,50.8,0,0,1,25.34-28.44,45.76,45.76,0,0,1,35.57-1.91A48.44,48.44,0,0,1,2314.27,875Zm-22.49,25.23a23.28,23.28,0,0,0-5.32-3.61,15.29,15.29,0,0,0-5.57-1.57,12,12,0,0,0-5.52.92,15.32,15.32,0,0,0-8.22,9.22,12.59,12.59,0,0,0-.32,5.63,14.65,14.65,0,0,0,2.15,5.4,24.44,24.44,0,0,0,9.51,8.48,15.39,15.39,0,0,0,5.66,1.56,12.35,12.35,0,0,0,5.61-.92,15.32,15.32,0,0,0,8.22-9.22,11.75,11.75,0,0,0,.23-5.63,16,16,0,0,0-2.24-5.4A23.28,23.28,0,0,0,2291.78,900.2Z"/><path class="cls-1" d="M2251.1,994.24l-30.67,12.91-25.07-59.55-22,9.28-10.24-24.32,52.72-22.19Z"/><path class="cls-1" d="M2179,1020.7l-32.68,6.31-17.26-89.35,32.68-6.31Z"/><path class="cls-1" d="M2126.6,986.67a48.46,48.46,0,0,1-4.14,18.47A46.23,46.23,0,0,1,2112,1020a48,48,0,0,1-66.28-69.53,46.5,46.5,0,0,1,15.45-9.67,50.8,50.8,0,0,1,38.07,1.17,45.77,45.77,0,0,1,24.3,26A48.45,48.45,0,0,1,2126.6,986.67Zm-33.78-1a23.28,23.28,0,0,0-.65-6.39,15.28,15.28,0,0,0-2.37-5.27,12,12,0,0,0-4.25-3.64,15.31,15.31,0,0,0-12.34-.38,12.6,12.6,0,0,0-4.53,3.37,14.69,14.69,0,0,0-2.76,5.12,24.44,24.44,0,0,0-.39,12.73,15.4,15.4,0,0,0,2.44,5.34,12.34,12.34,0,0,0,4.31,3.71,15.32,15.32,0,0,0,12.34.38,11.74,11.74,0,0,0,4.46-3.44,16,16,0,0,0,2.7-5.18A23.28,23.28,0,0,0,2092.81,985.64Z"/><path class="cls-1" d="M1974.51,908.39l26,19.09-53.88,73.34-35.52-26.09a37.1,37.1,0,0,1-7.95-8.18,33.48,33.48,0,0,1-5.29-11.14,31.41,31.41,0,0,1-.52-13.12,32.71,32.71,0,0,1,6.35-14.13,30.45,30.45,0,0,1,8.53-7.77,31.67,31.67,0,0,1,11.42-4.35,35.1,35.1,0,0,1,13,.25,32.69,32.69,0,0,1,13,6l9.53,7ZM1935.87,961l8.24-11.21-2.2-1.62a11.4,11.4,0,0,0-5.74-2.28,5.58,5.58,0,0,0-5.17,2.65,6,6,0,0,0-1.14,5.94,11,11,0,0,0,3.92,5Z"/><path class="cls-1" d="M1898.11,905.26a48.48,48.48,0,0,1-18.36,4.63,46.23,46.23,0,0,1-17.93-2.6A48,48,0,0,1,1894,816.77a46.52,46.52,0,0,1,15.6,9.43,50.8,50.8,0,0,1,16.12,34.51,45.76,45.76,0,0,1-12.29,33.43A48.44,48.44,0,0,1,1898.11,905.26Zm-14.31-30.62a23.26,23.26,0,0,0,5.41-3.46,15.29,15.29,0,0,0,3.64-4.5,12,12,0,0,0,1.34-5.43,15.31,15.31,0,0,0-5.23-11.19,12.59,12.59,0,0,0-5.05-2.52,14.67,14.67,0,0,0-5.81-.15,24.41,24.41,0,0,0-11.54,5.39,15.41,15.41,0,0,0-3.67,4.58,12.34,12.34,0,0,0-1.37,5.52,15.32,15.32,0,0,0,5.23,11.19,11.74,11.74,0,0,0,5.08,2.43,16,16,0,0,0,5.84.07A23.28,23.28,0,0,0,1883.8,874.63Z"/><path class="cls-1" d="M1901.66,770.24l-1.26,31.83-90.93-3.6,1.72-43.52a38.51,38.51,0,0,1,2.19-11,32.92,32.92,0,0,1,6-10.56,29.29,29.29,0,0,1,24.67-10.34,28.46,28.46,0,0,1,12.8,3.76,30.59,30.59,0,0,1,10.6,9.92l36.14-15.61-1.32,33.25-29.52,12.75-.08,1.95ZM1835.25,765l-.1,2.6,13.25.52.11-2.73a11.52,11.52,0,0,0-1.26-5.9,5.19,5.19,0,0,0-4.77-2.79,5.74,5.74,0,0,0-5.36,2.39A11.05,11.05,0,0,0,1835.25,765Z"/><path class="cls-1" d="M1848.76,697.08l-23.3-12.4,27.84-52.33,23.3,12.4-6.11,11.48,57,30.35L1911.91,716l-57-30.35Z"/><path class="cls-1" d="M1866.55,614.47,1905.8,570l19.78,17.47L1908.36,607l7.89,7,15.84-17.93,16.66,14.72-15.84,17.93,23.87,21.09-22,24.94Z"/><path class="cls-1" d="M1946.13,593a48.47,48.47,0,0,1-8.71-16.81,46.22,46.22,0,0,1-1.58-18,48,48,0,0,1,95.48,10.61,46.5,46.5,0,0,1-5.61,17.34,50.8,50.8,0,0,1-29.9,23.59,45.75,45.75,0,0,1-35.36-4.31A48.43,48.43,0,0,1,1946.13,593ZM1972.67,572a23.28,23.28,0,0,0,4.61,4.48,15.29,15.29,0,0,0,5.21,2.51,12,12,0,0,0,5.59.06,15.31,15.31,0,0,0,9.7-7.65,12.6,12.6,0,0,0,1.3-5.49,14.69,14.69,0,0,0-1.18-5.69,24.44,24.44,0,0,0-7.89-10,15.4,15.4,0,0,0-5.3-2.52,12.35,12.35,0,0,0-5.68-.07,15.31,15.31,0,0,0-9.7,7.65,11.73,11.73,0,0,0-1.2,5.5,16,16,0,0,0,1.27,5.7A23.27,23.27,0,0,0,1972.67,572Z"/><path class="cls-1" d="M2005.29,491.15l28.34-17.45,33.88,55,20.37-12.54,13.84,22.47-48.71,30Z"/><path class="cls-1" d="M2062.35,456.81l29.32-15.75,43.07,80.16L2105.42,537Z"/><path class="cls-1" d="M2119.67,476.69a48.44,48.44,0,0,1-4.28-18.44,46.2,46.2,0,0,1,2.94-17.88,48,48,0,0,1,89.89,33.88,46.5,46.5,0,0,1-9.72,15.42,50.8,50.8,0,0,1-34.81,15.47,45.76,45.76,0,0,1-33.2-12.92A48.45,48.45,0,0,1,2119.67,476.69ZM2150.56,463a23.28,23.28,0,0,0,3.36,5.48,15.27,15.27,0,0,0,4.43,3.72,12,12,0,0,0,5.41,1.44,15.32,15.32,0,0,0,11.29-5,12.59,12.59,0,0,0,2.61-5,14.69,14.69,0,0,0,.26-5.81,24.42,24.42,0,0,0-5.17-11.64,15.39,15.39,0,0,0-4.51-3.76,12.35,12.35,0,0,0-5.49-1.47,15.32,15.32,0,0,0-11.29,5,11.73,11.73,0,0,0-2.53,5,16,16,0,0,0-.18,5.84A23.27,23.27,0,0,0,2150.56,463Z"/><path class="cls-1" d="M2295.85,457.53l-31.18,8.19-23.12-88,42.63-11.19a37.08,37.08,0,0,1,11.35-1,33.48,33.48,0,0,1,12,2.9,31.39,31.39,0,0,1,10.53,7.85,32.72,32.72,0,0,1,7,13.82,30.46,30.46,0,0,1,.67,11.52,31.67,31.67,0,0,1-3.8,11.62,35.1,35.1,0,0,1-8.35,9.92,32.69,32.69,0,0,1-12.84,6.4l-11.44,3Zm-16.58-63.12,3.53,13.45,2.64-.69a11.39,11.39,0,0,0,5.39-3,5.58,5.58,0,0,0,1.19-5.69,6,6,0,0,0-3.9-4.62,11,11,0,0,0-6.34-.08Z"/><path class="cls-1" d="M2337.52,399.6a48.47,48.47,0,0,1,2.42-18.78,46.22,46.22,0,0,1,9-15.73,48,48,0,0,1,72.43,63.11,46.51,46.51,0,0,1-14.49,11.06,50.8,50.8,0,0,1-38,2.36,45.76,45.76,0,0,1-26.61-23.68A48.43,48.43,0,0,1,2337.52,399.6Zm33.73-2.09a23.28,23.28,0,0,0,1.24,6.31,15.28,15.28,0,0,0,2.85,5,12,12,0,0,0,4.56,3.23,15.32,15.32,0,0,0,12.33-.76,12.59,12.59,0,0,0,4.19-3.78,14.69,14.69,0,0,0,2.27-5.35,24.45,24.45,0,0,0-.79-12.72,15.4,15.4,0,0,0-2.92-5.09,12.35,12.35,0,0,0-4.63-3.29,15.32,15.32,0,0,0-12.33.76,11.75,11.75,0,0,0-4.12,3.84,16.05,16.05,0,0,0-2.2,5.41A23.3,23.3,0,0,0,2371.25,397.51Z"/><path class="cls-1" d="M2472.11,439.42l-31.85-.19.53-91,43.55.25a38.51,38.51,0,0,1,11,1.82,32.92,32.92,0,0,1,10.76,5.65,29.3,29.3,0,0,1,11.17,24.31,28.46,28.46,0,0,1-3.33,12.92,30.57,30.57,0,0,1-9.55,10.93l16.82,35.59-33.28-.19-13.74-29.07h-2Zm3-66.54-2.6,0-.08,13.26,2.73,0a11.52,11.52,0,0,0,5.86-1.46,5.19,5.19,0,0,0,2.63-4.86,5.74,5.74,0,0,0-2.57-5.28A11.06,11.06,0,0,0,2475.1,372.88Z"/><path class="cls-1" d="M2526.83,375.56l1.52-26.35,59.18,3.42L2586,379l-13-.75-3.73,64.5-33.22-1.92,3.73-64.5Z"/><path class="cls-1" d="M2596.44,353.36l59,6-2.69,26.25L2626.85,383l-1.07,10.48,23.79,2.44L2647.31,418l-23.8-2.44-3.25,31.68-33.11-3.39Z"/><path class="cls-1" d="M2657.12,405a48.45,48.45,0,0,1,6.43-17.8,46.21,46.21,0,0,1,12.19-13.41,48,48,0,0,1,57,77.32,46.49,46.49,0,0,1-16.54,7.65,50.8,50.8,0,0,1-37.62-5.95A45.76,45.76,0,0,1,2657.75,424,48.44,48.44,0,0,1,2657.12,405Zm33.39,5.28a23.23,23.23,0,0,0-.16,6.42,15.28,15.28,0,0,0,1.69,5.53,12,12,0,0,0,3.75,4.15,15.32,15.32,0,0,0,12.2,1.93,12.6,12.6,0,0,0,4.91-2.78,14.67,14.67,0,0,0,3.38-4.73,24.44,24.44,0,0,0,2-12.58,15.38,15.38,0,0,0-1.75-5.61,12.34,12.34,0,0,0-3.81-4.22,15.32,15.32,0,0,0-12.2-1.93,11.74,11.74,0,0,0-4.86,2.85,16,16,0,0,0-3.33,4.8A23.28,23.28,0,0,0,2690.51,410.31Z"/><path class="cls-1" d="M2767.84,377.24l32.57,6.85-13.3,63.23,23.41,4.92-5.43,25.83-56-11.77Z"/><path class="cls-1" d="M2831,390.83l32.35,7.81L2842,487.1l-32.35-7.81Z"/><path class="cls-1" d="M2859.43,444.06a48.47,48.47,0,0,1,8.48-16.93,46.21,46.21,0,0,1,13.68-11.88,48,48,0,0,1,47.54,83.48,46.51,46.51,0,0,1-17.33,5.66,50.8,50.8,0,0,1-36.67-10.32,45.76,45.76,0,0,1-17.3-31.14A48.45,48.45,0,0,1,2859.43,444.06Zm32.54,9.16a23.27,23.27,0,0,0-.91,6.36,15.29,15.29,0,0,0,1,5.69,12,12,0,0,0,3.24,4.56,15.32,15.32,0,0,0,11.89,3.35,12.6,12.6,0,0,0,5.21-2.18,14.69,14.69,0,0,0,3.91-4.3,24.44,24.44,0,0,0,3.45-12.26,15.4,15.4,0,0,0-1.08-5.77,12.35,12.35,0,0,0-3.29-4.64,15.32,15.32,0,0,0-11.89-3.35,11.74,11.74,0,0,0-5.16,2.26,16,16,0,0,0-3.87,4.38A23.27,23.27,0,0,0,2892,453.22Z"/><path class="cls-1" d="M3011.18,537.76l-30.49-10.48,29.59-86.05L3052,455.55a37.11,37.11,0,0,1,10,5.44,33.49,33.49,0,0,1,8.36,9.06,31.4,31.4,0,0,1,4.4,12.38,32.72,32.72,0,0,1-1.85,15.38,30.48,30.48,0,0,1-5.83,10,31.65,31.65,0,0,1-9.61,7.56,35.09,35.09,0,0,1-12.45,3.62,32.69,32.69,0,0,1-14.23-1.8l-11.19-3.85ZM3032.4,476l-4.52,13.15,2.58.89a11.4,11.4,0,0,0,6.16.47,5.58,5.58,0,0,0,4.15-4.07,6,6,0,0,0-.68-6,11,11,0,0,0-5.23-3.58Z"/><path class="cls-1" d="M3073.91,511.33a48.44,48.44,0,0,1,9.81-16.19,46.22,46.22,0,0,1,14.59-10.74,48,48,0,0,1,40.67,87,46.5,46.5,0,0,1-17.72,4.24,50.81,50.81,0,0,1-35.72-13.24A45.76,45.76,0,0,1,3070.8,530,48.43,48.43,0,0,1,3073.91,511.33Zm31.69,11.75a23.25,23.25,0,0,0-1.42,6.27,15.27,15.27,0,0,0,.57,5.76,12,12,0,0,0,2.86,4.81,15.32,15.32,0,0,0,11.58,4.29,12.59,12.59,0,0,0,5.36-1.75,14.69,14.69,0,0,0,4.25-4,24.44,24.44,0,0,0,4.43-11.95,15.38,15.38,0,0,0-.61-5.84,12.34,12.34,0,0,0-2.9-4.89,15.32,15.32,0,0,0-11.58-4.29,11.75,11.75,0,0,0-5.33,1.84,16.07,16.07,0,0,0-4.21,4.06A23.3,23.3,0,0,0,3105.6,523.07Z"/><path class="cls-1" d="M3182.77,600.4,3153,589,3185.73,504l40.64,15.64a38.52,38.52,0,0,1,9.68,5.61,32.9,32.9,0,0,1,8.06,9.09,29.29,29.29,0,0,1,1.85,26.69,28.48,28.48,0,0,1-7.68,10.9,30.57,30.57,0,0,1-12.8,6.84l3.15,39.24-31.06-12L3195,574l-1.82-.7Zm26.33-61.18-2.43-.93-4.76,12.38,2.55,1a11.52,11.52,0,0,0,6,.71,5.19,5.19,0,0,0,4.18-3.62,5.74,5.74,0,0,0-.54-5.85A11.06,11.06,0,0,0,3209.1,539.21Z"/><path class="cls-1" d="M3255.75,559.61,3266,535.29l54.63,23-10.25,24.32-12-5-25.09,59.54-30.67-12.92,25.09-59.54Z"/><path class="cls-1" d="M3327.22,561.19l54.18,24.06-10.71,24.12-23.76-10.55-4.27,9.62,21.86,9.71-9,20.32-21.86-9.71-12.93,29.11-30.42-13.51Z"/><path class="cls-1" d="M3368,629a48.47,48.47,0,0,1,11.1-15.34,46.2,46.2,0,0,1,15.42-9.52,48,48,0,0,1,33.45,90.05,46.5,46.5,0,0,1-18,2.79,50.8,50.8,0,0,1-34.52-16.1,45.76,45.76,0,0,1-12-33.52A48.45,48.45,0,0,1,3368,629Zm30.63,14.29a23.28,23.28,0,0,0-1.93,6.13,15.28,15.28,0,0,0,.1,5.78,12,12,0,0,0,2.46,5,15.32,15.32,0,0,0,11.19,5.22,12.59,12.59,0,0,0,5.49-1.31,14.66,14.66,0,0,0,4.55-3.61,24.42,24.42,0,0,0,5.39-11.54,15.39,15.39,0,0,0-.13-5.87,12.35,12.35,0,0,0-2.49-5.11,15.32,15.32,0,0,0-11.19-5.22,11.73,11.73,0,0,0-5.46,1.4,16,16,0,0,0-4.52,3.7A23.29,23.29,0,0,0,3398.59,643.28Z"/><path class="cls-1" d="M3480,631.3l30,14.5L3481.83,704l21.53,10.42-11.5,23.75-51.49-24.92Z"/><path class="cls-1" d="M3536.76,658.84l29.84,14.74-40.3,81.59-29.84-14.74Z"/><path class="cls-1" d="M3552.1,717a48.45,48.45,0,0,1,11.59-15,46.24,46.24,0,0,1,15.72-9,48,48,0,0,1,30.48,91.1,46.51,46.51,0,0,1-18.09,2.2,50.8,50.8,0,0,1-34-17.22,45.76,45.76,0,0,1-10.94-33.9A48.45,48.45,0,0,1,3552.1,717Zm30.15,15.28a23.22,23.22,0,0,0-2.13,6.06,15.26,15.26,0,0,0-.09,5.78,12,12,0,0,0,2.3,5.1,15.32,15.32,0,0,0,11,5.58,12.59,12.59,0,0,0,5.53-1.13,14.66,14.66,0,0,0,4.67-3.46,24.42,24.42,0,0,0,5.76-11.36,15.4,15.4,0,0,0,.06-5.87,12.34,12.34,0,0,0-2.33-5.19,15.31,15.31,0,0,0-11-5.58,11.74,11.74,0,0,0-5.5,1.22,16.05,16.05,0,0,0-4.64,3.55A23.25,23.25,0,0,0,3582.25,732.3Z"/><path class="cls-2" d="M73.15,28.83,76.38-3.25l90.54,9.13L162.5,49.73a37.09,37.09,0,0,1-3,11,33.48,33.48,0,0,1-6.91,10.21,31.39,31.39,0,0,1-11,7.12,32.71,32.71,0,0,1-15.39,1.71,30.46,30.46,0,0,1-11-3.4,31.66,31.66,0,0,1-9.55-7.63A35.09,35.09,0,0,1,99.2,57.46,32.7,32.7,0,0,1,97.7,43.2l1.19-11.77Zm64.93,6.54L124.24,34,124,36.7a11.4,11.4,0,0,0,1,6.11,5.58,5.58,0,0,0,4.91,3.11,6,6,0,0,0,5.69-2A11,11,0,0,0,137.82,38Z"/><path class="cls-2" d="M112.95,83.82a48.45,48.45,0,0,1,18,5.84,46.22,46.22,0,0,1,13.8,11.74,48.05,48.05,0,0,1-61.59,71.34,47.12,47.12,0,0,1-13.79-11.8,46.5,46.5,0,0,1-8.19-16.28,50.8,50.8,0,0,1,4.7-37.8A45.76,45.76,0,0,1,94.06,85.07,48.45,48.45,0,0,1,112.95,83.82Zm-4.17,33.54a23.26,23.26,0,0,0-6.43.05,15.27,15.27,0,0,0-5.47,1.87,12,12,0,0,0-4,3.89,15.31,15.31,0,0,0-1.52,12.26,12.6,12.6,0,0,0,2.94,4.82,14.68,14.68,0,0,0,4.84,3.22A24.43,24.43,0,0,0,111.76,145a15.39,15.39,0,0,0,5.55-1.93,12.34,12.34,0,0,0,4.09-3.95,15.31,15.31,0,0,0,1.52-12.26,11.74,11.74,0,0,0-3-4.76A16,16,0,0,0,115,119,23.29,23.29,0,0,0,108.78,117.36Z"/><path class="cls-2" d="M52,210.95l3-31.71,90.59,8.63-4.13,43.35a38.51,38.51,0,0,1-2.8,10.83,32.9,32.9,0,0,1-6.59,10.21,29.29,29.29,0,0,1-25.21,9,28.46,28.46,0,0,1-12.57-4.46,30.58,30.58,0,0,1-10-10.49L47.35,259.86l3.16-33.13,30.18-11.1.19-1.94Zm66,8.9.25-2.59L105.07,216l-.26,2.72a11.52,11.52,0,0,0,.93,6,5.19,5.19,0,0,0,4.61,3.05,5.74,5.74,0,0,0,5.49-2.09A11.06,11.06,0,0,0,118,219.85Z"/><path class="cls-2" d="M111.61,268.43l26.38.82-1.83,59.25-26.38-.82.4-13-64.58-2,1-33.26,64.58,2Z"/><path class="cls-2" d="M135.95,330.89,140.07,390l-26.33,1.84-1.81-25.94-10.5.73,1.67,23.86-22.18,1.55L79.26,368.2l-31.77,2.22-2.32-33.2Z"/><path class="cls-2" d="M93.13,401.51a48.45,48.45,0,0,1,18.81-2.11,46.21,46.21,0,0,1,17.42,5,48,48,0,0,1-44.11,85.34,46.5,46.5,0,0,1-14.18-11.45,50.8,50.8,0,0,1-11.31-36.37,45.76,45.76,0,0,1,16.69-31.47A48.45,48.45,0,0,1,93.13,401.51Zm10,32.27a23.27,23.27,0,0,0-5.83,2.7,15.27,15.27,0,0,0-4.21,4,12,12,0,0,0-2.06,5.2,15.32,15.32,0,0,0,3.67,11.79,12.6,12.6,0,0,0,4.66,3.18,14.68,14.68,0,0,0,5.74.94,24.43,24.43,0,0,0,12.17-3.78,15.39,15.39,0,0,0,4.25-4,12.34,12.34,0,0,0,2.1-5.28A15.31,15.31,0,0,0,120,436.65a11.74,11.74,0,0,0-4.71-3.1,16,16,0,0,0-5.78-.86A23.27,23.27,0,0,0,103.17,433.78Z"/><path class="cls-2" d="M164.42,472.22l21.25,25.61-49.73,41.25,15.27,18.41-20.31,16.85-36.52-44Z"/><path class="cls-2" d="M198.9,512.44,226.54,531l-50.7,75.57L148.2,588Z"/><path class="cls-2" d="M213.21,584a48.46,48.46,0,0,1,2.52-18.76,46.23,46.23,0,0,1,9.07-15.68,48,48,0,0,1,72.09,63.5,46.49,46.49,0,0,1-14.55,11,50.8,50.8,0,0,1-38,2.15,45.76,45.76,0,0,1-26.48-23.83A48.44,48.44,0,0,1,213.21,584ZM247,582.1a23.28,23.28,0,0,0,1.2,6.31,15.27,15.27,0,0,0,2.83,5,12,12,0,0,0,4.55,3.26,15.32,15.32,0,0,0,12.33-.7,12.59,12.59,0,0,0,4.21-3.75,14.68,14.68,0,0,0,2.3-5.34,24.43,24.43,0,0,0-.72-12.72,15.4,15.4,0,0,0-2.89-5.11,12.35,12.35,0,0,0-4.61-3.32,15.32,15.32,0,0,0-12.33.7,11.75,11.75,0,0,0-4.15,3.82,16,16,0,0,0-2.23,5.4A23.27,23.27,0,0,0,247,582.1Z"/><path class="cls-2" d="M406.25,507.34l-6.68,31.54-89-18.87,9.14-43.11a37.1,37.1,0,0,1,4.18-10.61,33.48,33.48,0,0,1,8-9.41A31.39,31.39,0,0,1,343.57,451a32.72,32.72,0,0,1,15.49,0,30.46,30.46,0,0,1,10.59,4.57,31.67,31.67,0,0,1,8.67,8.62,35.09,35.09,0,0,1,5.12,11.91,32.68,32.68,0,0,1,0,14.34L380.94,502ZM342.4,493.81,356,496.7l.57-2.67a11.4,11.4,0,0,0-.29-6.17,5.58,5.58,0,0,0-4.55-3.62,6,6,0,0,0-5.88,1.41,11,11,0,0,0-2.92,5.63Z"/><path class="cls-2" d="M369.58,447.23a48.45,48.45,0,0,1-17.58-7,46.2,46.2,0,0,1-13-12.63,48,48,0,0,1,79.19-54.38A46.51,46.51,0,0,1,425.29,390a50.8,50.8,0,0,1-7.21,37.4,45.76,45.76,0,0,1-29.57,19.85A48.45,48.45,0,0,1,369.58,447.23ZM376,414a23.27,23.27,0,0,0,6.42.38,15.28,15.28,0,0,0,5.59-1.51,12,12,0,0,0,4.27-3.61,15.32,15.32,0,0,0,2.34-12.13,12.6,12.6,0,0,0-2.61-5,14.68,14.68,0,0,0-4.61-3.54,24.43,24.43,0,0,0-12.51-2.41,15.4,15.4,0,0,0-5.66,1.56,12.35,12.35,0,0,0-4.35,3.66,15.32,15.32,0,0,0-2.34,12.13,11.74,11.74,0,0,0,2.69,5,16.05,16.05,0,0,0,4.69,3.49A23.3,23.3,0,0,0,376,414Z"/><path class="cls-2" d="M445,331.73l-13.31,28.94-82.68-38,18.19-39.57a38.52,38.52,0,0,1,6.21-9.31,32.92,32.92,0,0,1,9.59-7.47,29.29,29.29,0,0,1,26.75-.15,28.47,28.47,0,0,1,10.39,8.36,30.58,30.58,0,0,1,6,13.21l39.36-.65-13.9,30.24-32.15.53-.81,1.77Zm-59.39-30.17-1.09,2.36,12,5.54,1.14-2.48a11.52,11.52,0,0,0,1.09-5.94,5.19,5.19,0,0,0-3.34-4.4,5.74,5.74,0,0,0-5.87.16A11.06,11.06,0,0,0,385.64,301.57Z"/><path class="cls-2" d="M419.09,244.75l-18.3-19,42.71-41.11,18.3,19-9.37,9,44.81,46.55-24,23.08-44.81-46.55Z"/><path class="cls-2" d="M470.05,168.23l54.49-23.35,10.39,24.26L511,179.38l4.15,9.68,22-9.42,8.76,20.43-22,9.42,12.55,29.28-30.59,13.11Z"/><path class="cls-2" d="M554.68,180.22a48.46,48.46,0,0,1,2.12-18.81,46.22,46.22,0,0,1,8.74-15.87,48,48,0,0,1,73.4,62,46.51,46.51,0,0,1-14.31,11.28,50.8,50.8,0,0,1-38,3,45.76,45.76,0,0,1-27-23.26A48.44,48.44,0,0,1,554.68,180.22Zm33.7-2.62a23.27,23.27,0,0,0,1.34,6.29,15.28,15.28,0,0,0,2.93,5,12,12,0,0,0,4.61,3.16,15.31,15.31,0,0,0,12.31-1,12.59,12.59,0,0,0,4.13-3.84,14.68,14.68,0,0,0,2.19-5.39,24.44,24.44,0,0,0-1-12.7,15.39,15.39,0,0,0-3-5,12.34,12.34,0,0,0-4.68-3.22,15.32,15.32,0,0,0-12.31,1,11.74,11.74,0,0,0-4.06,3.9,16,16,0,0,0-2.12,5.45A23.28,23.28,0,0,0,588.37,177.6Z"/><path class="cls-2" d="M679.58,134.85l31.64,10.31-20,61.43L713.95,214l-8.18,25.09-54.38-17.73Z"/><path class="cls-2" d="M755.07,164.61,782.8,183l-50.32,75.82-27.73-18.4Z"/><path class="cls-2" d="M772.57,227.62a48.46,48.46,0,0,1,17.25-7.79,46.21,46.21,0,0,1,18.11-.59A48,48,0,0,1,792.17,314a46.5,46.5,0,0,1-17-6.54,50.8,50.8,0,0,1-21.94-31.14,45.76,45.76,0,0,1,6.22-35.07A48.45,48.45,0,0,1,772.57,227.62ZM792,255.25a23.28,23.28,0,0,0-4.72,4.36,15.28,15.28,0,0,0-2.79,5.07,12,12,0,0,0-.36,5.58,15.31,15.31,0,0,0,7.11,10.1,12.6,12.6,0,0,0,5.42,1.59,14.68,14.68,0,0,0,5.75-.87,24.43,24.43,0,0,0,10.41-7.34,15.39,15.39,0,0,0,2.81-5.16,12.35,12.35,0,0,0,.38-5.67,15.32,15.32,0,0,0-7.11-10.1,11.75,11.75,0,0,0-5.43-1.5,16,16,0,0,0-5.76,1A23.29,23.29,0,0,0,792,255.25Z"/><path class="cls-2" d="M798.89,398.36,797,366.18l90.84-5.31,2.57,44a37.09,37.09,0,0,1-1.23,11.34A33.48,33.48,0,0,1,884,427.37a31.39,31.39,0,0,1-9.77,8.78,32.72,32.72,0,0,1-14.93,4.13,30.46,30.46,0,0,1-11.42-1.61,31.66,31.66,0,0,1-10.64-6,35.08,35.08,0,0,1-8.08-10.14,32.69,32.69,0,0,1-3.74-13.85l-.69-11.81ZM864,394.55l-13.89.81.16,2.73a11.4,11.4,0,0,0,1.91,5.88,5.58,5.58,0,0,0,5.34,2.29,6,6,0,0,0,5.3-2.91,11,11,0,0,0,1.33-6.2Z"/><path class="cls-2" d="M848,455.26a48.47,48.47,0,0,1,16.71,8.9,46.22,46.22,0,0,1,11.54,14,48,48,0,0,1-84.63,45.45,46.5,46.5,0,0,1-5.22-17.46,50.8,50.8,0,0,1,11.23-36.4,45.76,45.76,0,0,1,31.56-16.52A48.44,48.44,0,0,1,848,455.26Zm-10,32.3a23.27,23.27,0,0,0-6.34-1.07,15.27,15.27,0,0,0-5.72.89,12,12,0,0,0-4.64,3.13,15.32,15.32,0,0,0-3.64,11.8,12.6,12.6,0,0,0,2.05,5.26,14.68,14.68,0,0,0,4.2,4,24.43,24.43,0,0,0,12.17,3.76,15.39,15.39,0,0,0,5.8-.93,12.35,12.35,0,0,0,4.72-3.17,15.32,15.32,0,0,0,3.64-11.8,11.74,11.74,0,0,0-2.13-5.22,16,16,0,0,0-4.28-4A23.3,23.3,0,0,0,838,487.56Z"/><path class="cls-2" d="M754.45,554.7l20.69-24.21,69.19,59.11L816,622.71a38.51,38.51,0,0,1-8.51,7.26,32.91,32.91,0,0,1-11.26,4.57,29.29,29.29,0,0,1-25.78-7.15,28.46,28.46,0,0,1-7.72-10.87,30.58,30.58,0,0,1-2.19-14.35l-38-10.11,21.62-25.3L775.22,575l1.27-1.48Zm48.92,45.21,1.69-2L795,589.32l-1.77,2.08a11.53,11.53,0,0,0-2.66,5.42,5.19,5.19,0,0,0,2,5.14,5.74,5.74,0,0,0,5.69,1.44A11.05,11.05,0,0,0,803.37,599.91Z"/><path class="cls-2" d="M762.4,640.29,779,660.82l-46.12,37.25-16.58-20.53,10.11-8.17-40.6-50.26,25.89-20.91,40.6,50.26Z"/><path class="cls-2" d="M726.2,702.38,679,738.24l-16-21,20.71-15.73-6.37-8.39-19,14.47-13.45-17.7,19-14.47L644.66,650l26.5-20.13Z"/><path class="cls-2" d="M641.77,703.73a48.46,48.46,0,0,1,12.3,14.39,46.22,46.22,0,0,1,5.64,17.22,48,48,0,0,1-95.38,11.39,46.51,46.51,0,0,1,1.52-18.16,50.8,50.8,0,0,1,23.75-29.78A45.76,45.76,0,0,1,625,694.94,48.45,48.45,0,0,1,641.77,703.73Zm-21.08,26.42a23.28,23.28,0,0,0-5.51-3.31,15.26,15.26,0,0,0-5.65-1.26,12,12,0,0,0-5.46,1.22,15.31,15.31,0,0,0-7.7,9.66,12.59,12.59,0,0,0,0,5.64,14.68,14.68,0,0,0,2.44,5.28,24.43,24.43,0,0,0,10,7.94,15.4,15.4,0,0,0,5.74,1.25,12.35,12.35,0,0,0,5.55-1.23,15.32,15.32,0,0,0,7.7-9.66,11.75,11.75,0,0,0-.08-5.63,16,16,0,0,0-2.54-5.26A23.27,23.27,0,0,0,620.69,730.16Z"/><path class="cls-2" d="M629.57,794.11,632,827.3,567.58,832l1.76,23.86L543,857.83l-4.2-57Z"/><path class="cls-2" d="M634.81,847.9l10.73,31.5L559.4,908.74l-10.73-31.5Z"/><path class="cls-2" d="M602.28,908.54A48.44,48.44,0,0,1,618,898a46.21,46.21,0,0,1,17.76-3.58,48,48,0,0,1,.13,96.06A46.51,46.51,0,0,1,618,986.85a50.8,50.8,0,0,1-26.79-27.08,45.76,45.76,0,0,1,.33-35.62A48.44,48.44,0,0,1,602.28,908.54Zm23.77,24a23.27,23.27,0,0,0-3.93,5.08,15.28,15.28,0,0,0-1.91,5.46,12,12,0,0,0,.57,5.56,15.32,15.32,0,0,0,8.69,8.78,12.6,12.6,0,0,0,5.6.67,14.67,14.67,0,0,0,5.52-1.81,24.44,24.44,0,0,0,9.06-9,15.39,15.39,0,0,0,1.91-5.55,12.35,12.35,0,0,0-.57-5.66,15.32,15.32,0,0,0-8.69-8.78,11.74,11.74,0,0,0-5.6-.58,16,16,0,0,0-5.53,1.9A23.3,23.3,0,0,0,626.06,932.57Z"/><path class="cls-2" d="M763,1032.68l-32.12,2.73-7.7-90.67L767.06,941a37.1,37.1,0,0,1,11.36.93,33.47,33.47,0,0,1,11.31,4.91,31.39,31.39,0,0,1,9,9.54,32.72,32.72,0,0,1,4.52,14.82A30.46,30.46,0,0,1,802,982.66a31.67,31.67,0,0,1-5.74,10.79,35.09,35.09,0,0,1-9.92,8.34,32.69,32.69,0,0,1-13.74,4.1l-11.79,1Zm-5.52-65,1.18,13.86,2.72-.23a11.39,11.39,0,0,0,5.83-2.06,5.58,5.58,0,0,0,2.15-5.4,6,6,0,0,0-3.05-5.22,11,11,0,0,0-6.23-1.17Z"/><path class="cls-2" d="M814.7,981a48.47,48.47,0,0,1-5.76-18,46.22,46.22,0,0,1,1.48-18.06,48,48,0,0,1,92.34,26.49,46.5,46.5,0,0,1-8.44,16.15,50.8,50.8,0,0,1-33.44,18.24,45.76,45.76,0,0,1-34.13-10.18A48.43,48.43,0,0,1,814.7,981Zm29.67-16.18a23.25,23.25,0,0,0,3.79,5.19,15.28,15.28,0,0,0,4.72,3.35,12,12,0,0,0,5.5,1,15.32,15.32,0,0,0,10.84-5.91,12.61,12.61,0,0,0,2.2-5.2,14.68,14.68,0,0,0-.21-5.81,24.43,24.43,0,0,0-6.1-11.18,15.38,15.38,0,0,0-4.8-3.38,12.33,12.33,0,0,0-5.59-1,15.31,15.31,0,0,0-10.84,5.91,11.74,11.74,0,0,0-2.11,5.22,16,16,0,0,0,.3,5.84A23.29,23.29,0,0,0,844.38,964.84Z"/><path class="cls-2" d="M957.68,939.17l-23.59,21.4-61.16-67.39,32.25-29.27a38.55,38.55,0,0,1,9.36-6.13,32.89,32.89,0,0,1,11.75-3.11A29.29,29.29,0,0,1,951,865a28.47,28.47,0,0,1,6.29,11.76,30.59,30.59,0,0,1,.35,14.51l36.46,14.84-24.64,22.37-29.78-12.12-1.44,1.31Zm-42.81-51-1.93,1.75,8.91,9.82,2-1.83a11.53,11.53,0,0,0,3.33-5,5.19,5.19,0,0,0-1.35-5.36,5.74,5.74,0,0,0-5.46-2.15A11.06,11.06,0,0,0,914.87,888.13Z"/><path class="cls-2" d="M953.39,855.91,936,836.1l44.5-39.16,17.43,19.81-9.76,8.59,42.68,48.51-25,22-42.68-48.51Z"/><path class="cls-2" d="M985.84,792.27l45.22-38.33,17.07,20.13-19.83,16.81,6.81,8,18.25-15.47,14.38,17-18.25,15.47,20.6,24.29-25.38,21.52Z"/><path class="cls-2" d="M1064.74,784.7a48.46,48.46,0,0,1-8.78-16.77,46.21,46.21,0,0,1-1.65-18,48,48,0,0,1,95.52,10.22,46.49,46.49,0,0,1-5.54,17.36,50.81,50.81,0,0,1-29.81,23.72,45.76,45.76,0,0,1-35.38-4.17A48.46,48.46,0,0,1,1064.74,784.7Zm26.45-21a23.3,23.3,0,0,0,4.63,4.46,15.29,15.29,0,0,0,5.22,2.49,12,12,0,0,0,5.59,0,15.32,15.32,0,0,0,9.66-7.69,12.6,12.6,0,0,0,1.27-5.5,14.69,14.69,0,0,0-1.2-5.69,24.43,24.43,0,0,0-7.93-10,15.39,15.39,0,0,0-5.31-2.5,12.35,12.35,0,0,0-5.68,0,15.31,15.31,0,0,0-9.66,7.69,11.74,11.74,0,0,0-1.18,5.51,16,16,0,0,0,1.29,5.7A23.27,23.27,0,0,0,1091.19,763.66Z"/><path class="cls-2" d="M1118.35,684.55l26.85-19.66L1183.37,717l19.3-14.13,15.59,21.29L1172.11,758Z"/><path class="cls-2" d="M1170.66,646.61l27.44-18.83,51.5,75-27.44,18.83Z"/><path class="cls-2" d="M1229.39,660.71a48.45,48.45,0,0,1-6.72-17.7,46.22,46.22,0,0,1,.51-18.11,48,48,0,0,1,93.62,21.52,46.5,46.5,0,0,1-7.57,16.58,50.8,50.8,0,0,1-32.42,20,45.76,45.76,0,0,1-34.63-8.35A48.44,48.44,0,0,1,1229.39,660.71ZM1258.16,643a23.27,23.27,0,0,0,4.06,5,15.27,15.27,0,0,0,4.89,3.09,12,12,0,0,0,5.55.7,15.32,15.32,0,0,0,10.51-6.48,12.6,12.6,0,0,0,1.92-5.31,14.68,14.68,0,0,0-.52-5.79,24.43,24.43,0,0,0-6.69-10.84,15.41,15.41,0,0,0-5-3.12,12.34,12.34,0,0,0-5.64-.72,15.32,15.32,0,0,0-10.51,6.48,11.73,11.73,0,0,0-1.83,5.33,16.06,16.06,0,0,0,.61,5.81A23.27,23.27,0,0,0,1258.16,643Z"/><path class="cls-2" d="M1401.32,615.48l-29.17,13.72-38.74-82.34,39.88-18.76a37.11,37.11,0,0,1,11-3.08,33.48,33.48,0,0,1,12.31.67,31.39,31.39,0,0,1,11.78,5.81,32.72,32.72,0,0,1,9.39,12.32,30.46,30.46,0,0,1,2.76,11.2,31.65,31.65,0,0,1-1.63,12.12,35.09,35.09,0,0,1-6.4,11.27A32.7,32.7,0,0,1,1401,587l-10.71,5Zm-27.78-59.05,5.92,12.59,2.47-1.16a11.4,11.4,0,0,0,4.75-4,5.58,5.58,0,0,0,.14-5.81,6,6,0,0,0-4.68-3.83,11,11,0,0,0-6.25,1.07Z"/><path class="cls-2" d="M1429.36,551.85a48.45,48.45,0,0,1-2.92-18.7,46.22,46.22,0,0,1,4.24-17.62,48,48,0,0,1,87.17,40.36A46.5,46.5,0,0,1,1507,570.55a50.8,50.8,0,0,1-35.84,12.89A45.75,45.75,0,0,1,1439,568.13,48.44,48.44,0,0,1,1429.36,551.85Zm31.81-11.43a23.28,23.28,0,0,0,3,5.71,15.29,15.29,0,0,0,4.14,4,12,12,0,0,0,5.29,1.83,15.31,15.31,0,0,0,11.62-4.18,12.59,12.59,0,0,0,3-4.8,14.68,14.68,0,0,0,.69-5.77,24.43,24.43,0,0,0-4.31-12,15.4,15.4,0,0,0-4.23-4.07,12.34,12.34,0,0,0-5.37-1.87,15.32,15.32,0,0,0-11.62,4.18,11.74,11.74,0,0,0-2.89,4.84,16,16,0,0,0-.6,5.81A23.3,23.3,0,0,0,1461.17,540.41Z"/><path class="cls-2" d="M1569.3,554l-30.94,7.57-21.61-88.4,42.3-10.34a38.51,38.51,0,0,1,11.15-.92A32.91,32.91,0,0,1,1582,464.8a29.29,29.29,0,0,1,16.75,20.86,28.46,28.46,0,0,1-.08,13.34,30.57,30.57,0,0,1-6.61,12.92l25,30.43-32.33,7.9-20.4-24.86-1.89.46ZM1556,488.76l-2.53.62,3.15,12.88,2.65-.65a11.52,11.52,0,0,0,5.33-2.84,5.19,5.19,0,0,0,1.37-5.35,5.74,5.74,0,0,0-3.78-4.5A11.06,11.06,0,0,0,1556,488.76Z"/><path class="cls-2" d="M1608.27,478.76l-4.09-26.07,58.56-9.18,4.09,26.07-12.84,2,10,63.83-32.88,5.15-10-63.83Z"/><path class="cls-2" d="M1673.59,442.24l59.08-4.88,2.17,26.3-25.91,2.14.87,10.49,23.84-2,1.83,22.15-23.84,2,2.62,31.74-33.17,2.74Z"/><path class="cls-2" d="M1743.6,481.69a48.45,48.45,0,0,1,3.7-18.57,46.22,46.22,0,0,1,10-15.08A48,48,0,0,1,1825.27,516a46.48,46.48,0,0,1-15.21,10,50.8,50.8,0,0,1-38.09-.26,45.76,45.76,0,0,1-24.92-25.45A48.43,48.43,0,0,1,1743.6,481.69Zm33.8.23a23.3,23.3,0,0,0,.8,6.38,15.29,15.29,0,0,0,2.5,5.22A12,12,0,0,0,1785,497a15.32,15.32,0,0,0,12.35.08,12.6,12.6,0,0,0,4.44-3.48,14.68,14.68,0,0,0,2.63-5.18,24.44,24.44,0,0,0,.09-12.74,15.37,15.37,0,0,0-2.56-5.28,12.34,12.34,0,0,0-4.4-3.6,15.31,15.31,0,0,0-12.35-.08,11.74,11.74,0,0,0-4.38,3.55,16,16,0,0,0-2.57,5.25A23.3,23.3,0,0,0,1777.4,481.92Z"/><path class="cls-2" d="M1851,438.23l33.15,2.9-5.62,64.36,23.83,2.08-2.3,26.29-57-5Z"/><path class="cls-2" d="M1916.38,444.44l33,4.42-12.08,90.2-33-4.42Z"/><path class="cls-2" d="M1950.72,494.29a48.45,48.45,0,0,1,7-17.58,46.21,46.21,0,0,1,12.63-13,48,48,0,0,1,54.36,79.21A46.5,46.5,0,0,1,2008,550a50.8,50.8,0,0,1-37.4-7.22,45.76,45.76,0,0,1-19.84-29.58A48.43,48.43,0,0,1,1950.72,494.29Zm33.19,6.4a23.25,23.25,0,0,0-.38,6.41,15.28,15.28,0,0,0,1.5,5.59,12,12,0,0,0,3.61,4.27,15.32,15.32,0,0,0,12.13,2.34,12.59,12.59,0,0,0,5-2.61,14.67,14.67,0,0,0,3.54-4.61,24.42,24.42,0,0,0,2.41-12.51,15.39,15.39,0,0,0-1.55-5.66,12.35,12.35,0,0,0-3.66-4.35,15.32,15.32,0,0,0-12.13-2.34,11.73,11.73,0,0,0-5,2.69,16.05,16.05,0,0,0-3.49,4.69A23.31,23.31,0,0,0,1983.91,500.7Z"/><path class="cls-2" d="M2106.36,577.78l-30.13-11.46,32.36-85.05,41.19,15.67a37.1,37.1,0,0,1,9.84,5.76,33.47,33.47,0,0,1,8.07,9.33,31.38,31.38,0,0,1,4,12.51,32.71,32.71,0,0,1-2.35,15.31,30.46,30.46,0,0,1-6.15,9.76,31.68,31.68,0,0,1-9.85,7.24,35.08,35.08,0,0,1-12.56,3.22,32.67,32.67,0,0,1-14.16-2.26l-11.06-4.21Zm23.21-61-4.95,13,2.55,1a11.39,11.39,0,0,0,6.14.67,5.58,5.58,0,0,0,4.28-3.94,6,6,0,0,0-.49-6,11,11,0,0,0-5.11-3.75Z"/><path class="cls-2" d="M2175.81,555.06a48.46,48.46,0,0,1,13.73-13,46.22,46.22,0,0,1,16.91-6.52,48,48,0,0,1,16.28,94.67,46.5,46.5,0,0,1-18.22-.58,50.8,50.8,0,0,1-31-22.19,45.76,45.76,0,0,1-5.67-35.17A48.44,48.44,0,0,1,2175.81,555.06Zm27.47,19.69a23.25,23.25,0,0,0-3,5.67,15.26,15.26,0,0,0-1,5.7,12,12,0,0,0,1.5,5.39,15.32,15.32,0,0,0,10,7.19,12.6,12.6,0,0,0,5.64-.28,14.67,14.67,0,0,0,5.14-2.71,24.43,24.43,0,0,0,7.42-10.36,15.38,15.38,0,0,0,1-5.79,12.35,12.35,0,0,0-1.51-5.48,15.31,15.31,0,0,0-10-7.19,11.73,11.73,0,0,0-5.62.37,16,16,0,0,0-5.13,2.8A23.28,23.28,0,0,0,2203.28,574.75Z"/><path class="cls-2" d="M2241.75,673.78l-16.12-27.47,78.48-46.06,22,37.56a38.52,38.52,0,0,1,4.08,10.42,32.92,32.92,0,0,1,.64,12.14,29.29,29.29,0,0,1-15.19,22,28.46,28.46,0,0,1-12.8,3.74,30.58,30.58,0,0,1-14.28-2.62l-22,32.65-16.84-28.7,18-26.67-1-1.68Zm58.72-31.45-1.32-2.24-11.44,6.71,1.38,2.35a11.52,11.52,0,0,0,4.25,4.29,5.19,5.19,0,0,0,5.52-.23,5.74,5.74,0,0,0,3.22-4.91A11.06,11.06,0,0,0,2300.48,642.34Z"/><path class="cls-2" d="M2327.15,704.82l26.23-2.91,6.54,58.92-26.23,2.91-1.43-12.92L2268,757.95l-3.67-33.08,64.22-7.13Z"/><path class="cls-2" d="M2357.85,791.24l-14.08,57.58-25.63-6.27,6.18-25.26-10.23-2.5L2308.39,838l-21.59-5.28,5.68-23.23-30.94-7.57,7.91-32.33Z"/><path class="cls-2" d="M2295.27,856a48.46,48.46,0,0,1,11.5,15,46.24,46.24,0,0,1,4.69,17.5,48,48,0,0,1-95.87,6.16,46.51,46.51,0,0,1,2.51-18.05,50.8,50.8,0,0,1,25.34-28.44,45.76,45.76,0,0,1,35.57-1.91A48.44,48.44,0,0,1,2295.27,856Zm-22.49,25.23a23.28,23.28,0,0,0-5.32-3.61,15.29,15.29,0,0,0-5.57-1.57,12,12,0,0,0-5.52.92,15.32,15.32,0,0,0-8.22,9.22,12.59,12.59,0,0,0-.32,5.63,14.65,14.65,0,0,0,2.15,5.4,24.44,24.44,0,0,0,9.51,8.48,15.39,15.39,0,0,0,5.66,1.56,12.35,12.35,0,0,0,5.61-.92,15.32,15.32,0,0,0,8.22-9.22,11.75,11.75,0,0,0,.23-5.63,16,16,0,0,0-2.24-5.4A23.28,23.28,0,0,0,2272.78,881.2Z"/><path class="cls-2" d="M2232.1,975.24l-30.67,12.91-25.07-59.55-22,9.28-10.24-24.32,52.72-22.19Z"/><path class="cls-2" d="M2160,1001.7l-32.68,6.31-17.26-89.35,32.68-6.31Z"/><path class="cls-2" d="M2107.6,967.67a48.46,48.46,0,0,1-4.14,18.47A46.23,46.23,0,0,1,2093,1001a48,48,0,0,1-66.28-69.53,46.5,46.5,0,0,1,15.45-9.67,50.8,50.8,0,0,1,38.07,1.17,45.77,45.77,0,0,1,24.3,26A48.45,48.45,0,0,1,2107.6,967.67Zm-33.78-1a23.28,23.28,0,0,0-.65-6.39,15.28,15.28,0,0,0-2.37-5.27,12,12,0,0,0-4.25-3.64,15.31,15.31,0,0,0-12.34-.38,12.6,12.6,0,0,0-4.53,3.37,14.69,14.69,0,0,0-2.76,5.12,24.44,24.44,0,0,0-.39,12.73,15.4,15.4,0,0,0,2.44,5.34,12.34,12.34,0,0,0,4.31,3.71,15.32,15.32,0,0,0,12.34.38,11.74,11.74,0,0,0,4.46-3.44,16,16,0,0,0,2.7-5.18A23.28,23.28,0,0,0,2073.81,966.64Z"/><path class="cls-2" d="M1955.51,889.39l26,19.09-53.88,73.34-35.52-26.09a37.1,37.1,0,0,1-7.95-8.18,33.48,33.48,0,0,1-5.29-11.14,31.41,31.41,0,0,1-.52-13.12,32.71,32.71,0,0,1,6.35-14.13,30.45,30.45,0,0,1,8.53-7.77,31.67,31.67,0,0,1,11.42-4.35,35.1,35.1,0,0,1,13,.25,32.69,32.69,0,0,1,13,6l9.53,7ZM1916.87,942l8.24-11.21-2.2-1.62a11.4,11.4,0,0,0-5.74-2.28,5.58,5.58,0,0,0-5.17,2.65,6,6,0,0,0-1.14,5.94,11,11,0,0,0,3.92,5Z"/><path class="cls-2" d="M1879.11,886.26a48.48,48.48,0,0,1-18.36,4.63,46.23,46.23,0,0,1-17.93-2.6A48,48,0,0,1,1875,797.77a46.52,46.52,0,0,1,15.6,9.43,50.8,50.8,0,0,1,16.12,34.51,45.76,45.76,0,0,1-12.29,33.43A48.44,48.44,0,0,1,1879.11,886.26Zm-14.31-30.62a23.26,23.26,0,0,0,5.41-3.46,15.29,15.29,0,0,0,3.64-4.5,12,12,0,0,0,1.34-5.43,15.31,15.31,0,0,0-5.23-11.19,12.59,12.59,0,0,0-5.05-2.52,14.67,14.67,0,0,0-5.81-.15,24.41,24.41,0,0,0-11.54,5.39,15.41,15.41,0,0,0-3.67,4.58,12.34,12.34,0,0,0-1.37,5.52,15.32,15.32,0,0,0,5.23,11.19,11.74,11.74,0,0,0,5.08,2.43,16,16,0,0,0,5.84.07A23.28,23.28,0,0,0,1864.8,855.63Z"/><path class="cls-2" d="M1882.66,751.24l-1.26,31.83-90.93-3.6,1.72-43.52a38.51,38.51,0,0,1,2.19-11,32.92,32.92,0,0,1,6-10.56,29.29,29.29,0,0,1,24.67-10.34,28.46,28.46,0,0,1,12.8,3.76,30.59,30.59,0,0,1,10.6,9.92l36.14-15.61-1.32,33.25-29.52,12.75-.08,1.95ZM1816.25,746l-.1,2.6,13.25.52.11-2.73a11.52,11.52,0,0,0-1.26-5.9,5.19,5.19,0,0,0-4.77-2.79,5.74,5.74,0,0,0-5.36,2.39A11.05,11.05,0,0,0,1816.25,746Z"/><path class="cls-2" d="M1829.76,678.08l-23.3-12.4,27.84-52.33,23.3,12.4-6.11,11.48,57,30.35L1892.91,697l-57-30.35Z"/><path class="cls-2" d="M1847.55,595.47,1886.8,551l19.78,17.47L1889.36,588l7.89,7,15.84-17.93,16.66,14.72-15.84,17.93,23.87,21.09-22,24.94Z"/><path class="cls-2" d="M1927.13,574a48.47,48.47,0,0,1-8.71-16.81,46.22,46.22,0,0,1-1.58-18,48,48,0,0,1,95.48,10.61,46.5,46.5,0,0,1-5.61,17.34,50.8,50.8,0,0,1-29.9,23.59,45.75,45.75,0,0,1-35.36-4.31A48.43,48.43,0,0,1,1927.13,574ZM1953.67,553a23.28,23.28,0,0,0,4.61,4.48,15.29,15.29,0,0,0,5.21,2.51,12,12,0,0,0,5.59.06,15.31,15.31,0,0,0,9.7-7.65,12.6,12.6,0,0,0,1.3-5.49,14.69,14.69,0,0,0-1.18-5.69,24.44,24.44,0,0,0-7.89-10,15.4,15.4,0,0,0-5.3-2.52,12.35,12.35,0,0,0-5.68-.07,15.31,15.31,0,0,0-9.7,7.65,11.73,11.73,0,0,0-1.2,5.5,16,16,0,0,0,1.27,5.7A23.27,23.27,0,0,0,1953.67,553Z"/><path class="cls-2" d="M1986.29,472.15l28.34-17.45,33.88,55,20.37-12.54,13.84,22.47-48.71,30Z"/><path class="cls-2" d="M2043.35,437.81l29.32-15.75,43.07,80.16L2086.42,518Z"/><path class="cls-2" d="M2100.67,457.69a48.44,48.44,0,0,1-4.28-18.44,46.2,46.2,0,0,1,2.94-17.88,48,48,0,0,1,89.89,33.88,46.5,46.5,0,0,1-9.72,15.42,50.8,50.8,0,0,1-34.81,15.47,45.76,45.76,0,0,1-33.2-12.92A48.45,48.45,0,0,1,2100.67,457.69ZM2131.56,444a23.28,23.28,0,0,0,3.36,5.48,15.27,15.27,0,0,0,4.43,3.72,12,12,0,0,0,5.41,1.44,15.32,15.32,0,0,0,11.29-5,12.59,12.59,0,0,0,2.61-5,14.69,14.69,0,0,0,.26-5.81,24.42,24.42,0,0,0-5.17-11.64,15.39,15.39,0,0,0-4.51-3.76,12.35,12.35,0,0,0-5.49-1.47,15.32,15.32,0,0,0-11.29,5,11.73,11.73,0,0,0-2.53,5,16,16,0,0,0-.18,5.84A23.27,23.27,0,0,0,2131.56,444Z"/><path class="cls-2" d="M2276.85,438.53l-31.18,8.19-23.12-88,42.63-11.19a37.08,37.08,0,0,1,11.35-1,33.48,33.48,0,0,1,12,2.9,31.39,31.39,0,0,1,10.53,7.85,32.72,32.72,0,0,1,7,13.82,30.46,30.46,0,0,1,.67,11.52,31.67,31.67,0,0,1-3.8,11.62,35.1,35.1,0,0,1-8.35,9.92,32.69,32.69,0,0,1-12.84,6.4l-11.44,3Zm-16.58-63.12,3.53,13.45,2.64-.69a11.39,11.39,0,0,0,5.39-3,5.58,5.58,0,0,0,1.19-5.69,6,6,0,0,0-3.9-4.62,11,11,0,0,0-6.34-.08Z"/><path class="cls-2" d="M2318.52,380.6a48.47,48.47,0,0,1,2.42-18.78,46.22,46.22,0,0,1,9-15.73,48,48,0,0,1,72.43,63.11,46.51,46.51,0,0,1-14.49,11.06,50.8,50.8,0,0,1-38,2.36,45.76,45.76,0,0,1-26.61-23.68A48.43,48.43,0,0,1,2318.52,380.6Zm33.73-2.09a23.28,23.28,0,0,0,1.24,6.31,15.28,15.28,0,0,0,2.85,5,12,12,0,0,0,4.56,3.23,15.32,15.32,0,0,0,12.33-.76,12.59,12.59,0,0,0,4.19-3.78,14.69,14.69,0,0,0,2.27-5.35,24.45,24.45,0,0,0-.79-12.72,15.4,15.4,0,0,0-2.92-5.09,12.35,12.35,0,0,0-4.63-3.29,15.32,15.32,0,0,0-12.33.76,11.75,11.75,0,0,0-4.12,3.84,16.05,16.05,0,0,0-2.2,5.41A23.3,23.3,0,0,0,2352.25,378.51Z"/><path class="cls-2" d="M2453.11,420.42l-31.85-.19.53-91,43.55.25a38.51,38.51,0,0,1,11,1.82,32.92,32.92,0,0,1,10.76,5.65,29.3,29.3,0,0,1,11.17,24.31,28.46,28.46,0,0,1-3.33,12.92,30.57,30.57,0,0,1-9.55,10.93l16.82,35.59-33.28-.19-13.74-29.07h-2Zm3-66.54-2.6,0-.08,13.26,2.73,0a11.52,11.52,0,0,0,5.86-1.46,5.19,5.19,0,0,0,2.63-4.86,5.74,5.74,0,0,0-2.57-5.28A11.06,11.06,0,0,0,2456.1,353.88Z"/><path class="cls-2" d="M2507.83,356.56l1.52-26.35,59.18,3.42L2567,360l-13-.75-3.73,64.5-33.22-1.92,3.73-64.5Z"/><path class="cls-2" d="M2577.44,334.36l59,6-2.69,26.25L2607.85,364l-1.07,10.48,23.79,2.44L2628.31,399l-23.8-2.44-3.25,31.68-33.11-3.39Z"/><path class="cls-2" d="M2638.12,386a48.45,48.45,0,0,1,6.43-17.8,46.21,46.21,0,0,1,12.19-13.41,48,48,0,0,1,57,77.32,46.49,46.49,0,0,1-16.54,7.65,50.8,50.8,0,0,1-37.62-5.95A45.76,45.76,0,0,1,2638.75,405,48.44,48.44,0,0,1,2638.12,386Zm33.39,5.28a23.23,23.23,0,0,0-.16,6.42,15.28,15.28,0,0,0,1.69,5.53,12,12,0,0,0,3.75,4.15,15.32,15.32,0,0,0,12.2,1.93,12.6,12.6,0,0,0,4.91-2.78,14.67,14.67,0,0,0,3.38-4.73,24.44,24.44,0,0,0,2-12.58,15.38,15.38,0,0,0-1.75-5.61,12.34,12.34,0,0,0-3.81-4.22,15.32,15.32,0,0,0-12.2-1.93,11.74,11.74,0,0,0-4.86,2.85,16,16,0,0,0-3.33,4.8A23.28,23.28,0,0,0,2671.51,391.31Z"/><path class="cls-2" d="M2748.84,358.24l32.57,6.85-13.3,63.23,23.41,4.92-5.43,25.83-56-11.77Z"/><path class="cls-2" d="M2812,371.83l32.35,7.81L2823,468.1l-32.35-7.81Z"/><path class="cls-2" d="M2840.43,425.06a48.47,48.47,0,0,1,8.48-16.93,46.21,46.21,0,0,1,13.68-11.88,48,48,0,0,1,47.54,83.48,46.51,46.51,0,0,1-17.33,5.66,50.8,50.8,0,0,1-36.67-10.32,45.76,45.76,0,0,1-17.3-31.14A48.45,48.45,0,0,1,2840.43,425.06Zm32.54,9.16a23.27,23.27,0,0,0-.91,6.36,15.29,15.29,0,0,0,1,5.69,12,12,0,0,0,3.24,4.56,15.32,15.32,0,0,0,11.89,3.35,12.6,12.6,0,0,0,5.21-2.18,14.69,14.69,0,0,0,3.91-4.3,24.44,24.44,0,0,0,3.45-12.26,15.4,15.4,0,0,0-1.08-5.77,12.35,12.35,0,0,0-3.29-4.64,15.32,15.32,0,0,0-11.89-3.35,11.74,11.74,0,0,0-5.16,2.26,16,16,0,0,0-3.87,4.38A23.27,23.27,0,0,0,2873,434.22Z"/><path class="cls-2" d="M2992.18,518.76l-30.49-10.48,29.59-86.05L3033,436.55a37.11,37.11,0,0,1,10,5.44,33.49,33.49,0,0,1,8.36,9.06,31.4,31.4,0,0,1,4.4,12.38,32.72,32.72,0,0,1-1.85,15.38,30.48,30.48,0,0,1-5.83,10,31.65,31.65,0,0,1-9.61,7.56,35.09,35.09,0,0,1-12.45,3.62,32.69,32.69,0,0,1-14.23-1.8l-11.19-3.85ZM3013.4,457l-4.52,13.15,2.58.89a11.4,11.4,0,0,0,6.16.47,5.58,5.58,0,0,0,4.15-4.07,6,6,0,0,0-.68-6,11,11,0,0,0-5.23-3.58Z"/><path class="cls-2" d="M3054.91,492.33a48.44,48.44,0,0,1,9.81-16.19,46.22,46.22,0,0,1,14.59-10.74,48,48,0,0,1,40.67,87,46.5,46.5,0,0,1-17.72,4.24,50.81,50.81,0,0,1-35.72-13.24A45.76,45.76,0,0,1,3051.8,511,48.43,48.43,0,0,1,3054.91,492.33Zm31.69,11.75a23.25,23.25,0,0,0-1.42,6.27,15.27,15.27,0,0,0,.57,5.76,12,12,0,0,0,2.86,4.81,15.32,15.32,0,0,0,11.58,4.29,12.59,12.59,0,0,0,5.36-1.75,14.69,14.69,0,0,0,4.25-4,24.44,24.44,0,0,0,4.43-11.95,15.38,15.38,0,0,0-.61-5.84,12.34,12.34,0,0,0-2.9-4.89,15.32,15.32,0,0,0-11.58-4.29,11.75,11.75,0,0,0-5.33,1.84,16.07,16.07,0,0,0-4.21,4.06A23.3,23.3,0,0,0,3086.6,504.07Z"/><path class="cls-2" d="M3163.77,581.4,3134,570,3166.73,485l40.64,15.64a38.52,38.52,0,0,1,9.68,5.61,32.9,32.9,0,0,1,8.06,9.09,29.29,29.29,0,0,1,1.85,26.69,28.48,28.48,0,0,1-7.68,10.9,30.57,30.57,0,0,1-12.8,6.84l3.15,39.24-31.06-12L3176,555l-1.82-.7Zm26.33-61.18-2.43-.93-4.76,12.38,2.55,1a11.52,11.52,0,0,0,6,.71,5.19,5.19,0,0,0,4.18-3.62,5.74,5.74,0,0,0-.54-5.85A11.06,11.06,0,0,0,3190.1,520.21Z"/><path class="cls-2" d="M3236.75,540.61,3247,516.29l54.63,23-10.25,24.32-12-5-25.09,59.54-30.67-12.92,25.09-59.54Z"/><path class="cls-2" d="M3308.22,542.19l54.18,24.06-10.71,24.12-23.76-10.55-4.27,9.62,21.86,9.71-9,20.32-21.86-9.71-12.93,29.11-30.42-13.51Z"/><path class="cls-2" d="M3349,610a48.47,48.47,0,0,1,11.1-15.34,46.2,46.2,0,0,1,15.42-9.52,48,48,0,0,1,33.45,90.05,46.5,46.5,0,0,1-18,2.79,50.8,50.8,0,0,1-34.52-16.1,45.76,45.76,0,0,1-12-33.52A48.45,48.45,0,0,1,3349,610Zm30.63,14.29a23.28,23.28,0,0,0-1.93,6.13,15.28,15.28,0,0,0,.1,5.78,12,12,0,0,0,2.46,5,15.32,15.32,0,0,0,11.19,5.22,12.59,12.59,0,0,0,5.49-1.31,14.66,14.66,0,0,0,4.55-3.61,24.42,24.42,0,0,0,5.39-11.54,15.39,15.39,0,0,0-.13-5.87,12.35,12.35,0,0,0-2.49-5.11,15.32,15.32,0,0,0-11.19-5.22,11.73,11.73,0,0,0-5.46,1.4,16,16,0,0,0-4.52,3.7A23.29,23.29,0,0,0,3379.59,624.28Z"/><path class="cls-2" d="M3461,612.3l30,14.5L3462.83,685l21.53,10.42-11.5,23.75-51.49-24.92Z"/><path class="cls-2" d="M3517.76,639.84l29.84,14.74-40.3,81.59-29.84-14.74Z"/><path class="cls-2" d="M3533.1,698a48.45,48.45,0,0,1,11.59-15,46.24,46.24,0,0,1,15.72-9,48,48,0,0,1,30.48,91.1,46.51,46.51,0,0,1-18.09,2.2,50.8,50.8,0,0,1-34-17.22,45.76,45.76,0,0,1-10.94-33.9A48.45,48.45,0,0,1,3533.1,698Zm30.15,15.28a23.22,23.22,0,0,0-2.13,6.06,15.26,15.26,0,0,0-.09,5.78,12,12,0,0,0,2.3,5.1,15.32,15.32,0,0,0,11,5.58,12.59,12.59,0,0,0,5.53-1.13,14.66,14.66,0,0,0,4.67-3.46,24.42,24.42,0,0,0,5.76-11.36,15.4,15.4,0,0,0,.06-5.87,12.34,12.34,0,0,0-2.33-5.19,15.31,15.31,0,0,0-11-5.58,11.74,11.74,0,0,0-5.5,1.22,16.05,16.05,0,0,0-4.64,3.55A23.25,23.25,0,0,0,3563.25,713.3Z"/></svg>
